<svg xmlns="http://www.w3.org/2000/svg" width="96" height="112" viewBox="0 0 64 80">
      <defs><filter id="shadow"><feDropShadow dx="0" dy="2" stdDeviation="2" flood-color="rgba(0,0,0,.18)"/></filter></defs>
      <rect width="64" height="80" rx="20" fill="#ffffff" opacity="0"/>
      <g filter="url(#shadow)">
        <rect x="21" y="44" width="22" height="18" rx="8" fill="#ef4444"/>
        <rect x="19" y="58" width="10" height="16" rx="5" fill="#273449"/>
        <rect x="35" y="58" width="10" height="16" rx="5" fill="#273449"/>
        <rect x="12" y="45" width="10" height="18" rx="5" fill="#ef4444" opacity=".95"/>
        <rect x="42" y="45" width="10" height="18" rx="5" fill="#ef4444" opacity=".95"/>
        <rect x="17" y="72" width="14" height="5" rx="2.5" fill="#334155"/>
        <rect x="33" y="72" width="14" height="5" rx="2.5" fill="#334155"/>
        <circle cx="32" cy="27" r="16" fill="#e0b287"/>
        <path d="M16 12 C21 3, 43 3, 48 12 L48 22 L16 22 Z" fill="#3b2d24" /><circle cx="18" cy="21" r="4" fill="#3b2d24" /><circle cx="46" cy="21" r="4" fill="#3b2d24" />
        <circle cx="25" cy="27" r="2.2" fill="#1f2937"/>
        <circle cx="39" cy="27" r="2.2" fill="#1f2937"/>
        <ellipse cx="22" cy="34" rx="3" ry="2" fill="#a855f7" opacity=".18"/><ellipse cx="42" cy="34" rx="3" ry="2" fill="#a855f7" opacity=".18"/>
        <path d="M25 36 Q32 41 39 36" stroke="#6b3d2e" stroke-width="2.5" fill="none" stroke-linecap="round"/>
        
        <path d="M32 54 L36 64 L28 64 Z" fill="#a855f7" opacity=".9"/><rect x="29.5" y="49" width="5" height="8" rx="2" fill="#a855f7"/>
      </g>
    </svg>