<svg xmlns="http://www.w3.org/2000/svg" width="96" height="112" viewBox="0 0 64 80">
      <defs><filter id="shadow"><feDropShadow dx="0" dy="2" stdDeviation="2" flood-color="rgba(0,0,0,.18)"/></filter></defs>
      <rect width="64" height="80" rx="20" fill="#ffffff" opacity="0"/>
      <g filter="url(#shadow)">
        <rect x="21" y="44" width="22" height="18" rx="8" fill="#4f86f7"/>
        <rect x="19" y="58" width="10" height="16" rx="5" fill="#334155"/>
        <rect x="35" y="58" width="10" height="16" rx="5" fill="#334155"/>
        <rect x="12" y="45" width="10" height="18" rx="5" fill="#4f86f7" opacity=".95"/>
        <rect x="42" y="45" width="10" height="18" rx="5" fill="#4f86f7" opacity=".95"/>
        <rect x="17" y="72" width="14" height="5" rx="2.5" fill="#334155"/>
        <rect x="33" y="72" width="14" height="5" rx="2.5" fill="#334155"/>
        <circle cx="32" cy="27" r="16" fill="#f0c9a4"/>
        <path d="M14 14 C18 4, 46 4, 50 14 L50 18 L14 18 Z" fill="#f59e0b" /><rect x="13" y="18" width="38" height="5" rx="2.5" fill="#f59e0b" opacity=".9"/>
        <circle cx="25" cy="27" r="2.2" fill="#1f2937"/>
        <circle cx="39" cy="27" r="2.2" fill="#1f2937"/>
        <ellipse cx="22" cy="34" rx="3" ry="2" fill="#f59e0b" opacity=".18"/><ellipse cx="42" cy="34" rx="3" ry="2" fill="#f59e0b" opacity=".18"/>
        <path d="M25 36 Q32 41 39 36" stroke="#6b3d2e" stroke-width="2.5" fill="none" stroke-linecap="round"/>
        
        
      </g>
    </svg>