<svg xmlns="http://www.w3.org/2000/svg" width="160" height="180" viewBox="0 0 160 180">
    <defs><linearGradient id="g" x1="0" x2="0" y1="0" y2="1"><stop offset="0" stop-color="#fbcfe8"/><stop offset="1" stop-color="#f472b6"/></linearGradient></defs>
    <rect width="160" height="180" fill="none"/>
    <ellipse cx="80" cy="164" rx="56" ry="12" fill="#000" opacity=".08"/>
    <rect x="14" y="76" width="132" height="104" rx="14" fill="url(#g)"/>
    <rect x="22" y="64" width="116" height="16" rx="8" fill="#ef4444"/><rect x="66" y="88" width="28" height="28" rx="6" fill="white"/><rect x="76" y="92" width="8" height="20" fill="#ef4444"/><rect x="70" y="98" width="20" height="8" fill="#ef4444"/><rect x="26" y="94" width="18" height="12" rx="4" fill="#eef7ff" opacity=".92"/><rect x="56" y="94" width="18" height="12" rx="4" fill="#eef7ff" opacity=".92"/><rect x="86" y="94" width="18" height="12" rx="4" fill="#eef7ff" opacity=".92"/><rect x="116" y="94" width="18" height="12" rx="4" fill="#eef7ff" opacity=".92"/><rect x="26" y="116" width="18" height="12" rx="4" fill="#eef7ff" opacity=".92"/><rect x="56" y="116" width="18" height="12" rx="4" fill="#eef7ff" opacity=".92"/><rect x="86" y="116" width="18" height="12" rx="4" fill="#eef7ff" opacity=".92"/><rect x="116" y="116" width="18" height="12" rx="4" fill="#eef7ff" opacity=".92"/><rect x="26" y="138" width="18" height="12" rx="4" fill="#eef7ff" opacity=".92"/><rect x="56" y="138" width="18" height="12" rx="4" fill="#eef7ff" opacity=".92"/><rect x="86" y="138" width="18" height="12" rx="4" fill="#eef7ff" opacity=".92"/><rect x="116" y="138" width="18" height="12" rx="4" fill="#eef7ff" opacity=".92"/><rect x="26" y="160" width="18" height="12" rx="4" fill="#eef7ff" opacity=".92"/><rect x="56" y="160" width="18" height="12" rx="4" fill="#eef7ff" opacity=".92"/><rect x="86" y="160" width="18" height="12" rx="4" fill="#eef7ff" opacity=".92"/><rect x="116" y="160" width="18" height="12" rx="4" fill="#eef7ff" opacity=".92"/><rect x="68" y="148" width="24" height="32" rx="8" fill="#ef4444" opacity=".82"/></svg>