<svg xmlns="http://www.w3.org/2000/svg" width="160" height="180" viewBox="0 0 160 180">
    <defs><linearGradient id="g" x1="0" x2="0" y1="0" y2="1"><stop offset="0" stop-color="#fdba74"/><stop offset="1" stop-color="#fb923c"/></linearGradient></defs>
    <rect width="160" height="180" fill="none"/>
    <ellipse cx="80" cy="164" rx="56" ry="12" fill="#000" opacity=".08"/>
    <rect x="14" y="80" width="132" height="100" rx="14" fill="url(#g)"/>
    <rect x="22" y="68" width="116" height="16" rx="8" fill="#7c2d12"/><path d="M30 108 L56 92 L56 108 L82 92 L82 108 L130 108 V120 H30 Z" fill="#7c2d12" opacity=".85"/><rect x="118" y="50" width="18" height="52" rx="6" fill="#7c2d12"/><circle cx="127" cy="42" r="10" fill="white" opacity=".65"/><circle cx="118" cy="26" r="8" fill="white" opacity=".42"/><rect x="26" y="98" width="18" height="12" rx="4" fill="#fff4bf" opacity=".92"/><rect x="56" y="98" width="18" height="12" rx="4" fill="#fff4bf" opacity=".92"/><rect x="86" y="98" width="18" height="12" rx="4" fill="#fff4bf" opacity=".92"/><rect x="116" y="98" width="18" height="12" rx="4" fill="#fff4bf" opacity=".92"/><rect x="26" y="120" width="18" height="12" rx="4" fill="#fff4bf" opacity=".92"/><rect x="56" y="120" width="18" height="12" rx="4" fill="#fff4bf" opacity=".92"/><rect x="86" y="120" width="18" height="12" rx="4" fill="#fff4bf" opacity=".92"/><rect x="116" y="120" width="18" height="12" rx="4" fill="#fff4bf" opacity=".92"/><rect x="26" y="142" width="18" height="12" rx="4" fill="#fff4bf" opacity=".92"/><rect x="56" y="142" width="18" height="12" rx="4" fill="#fff4bf" opacity=".92"/><rect x="86" y="142" width="18" height="12" rx="4" fill="#fff4bf" opacity=".92"/><rect x="116" y="142" width="18" height="12" rx="4" fill="#fff4bf" opacity=".92"/><rect x="26" y="164" width="18" height="12" rx="4" fill="#fff4bf" opacity=".92"/><rect x="56" y="164" width="18" height="12" rx="4" fill="#fff4bf" opacity=".92"/><rect x="86" y="164" width="18" height="12" rx="4" fill="#fff4bf" opacity=".92"/><rect x="116" y="164" width="18" height="12" rx="4" fill="#fff4bf" opacity=".92"/><rect x="68" y="148" width="24" height="32" rx="8" fill="#7c2d12" opacity=".82"/></svg>