<svg xmlns="http://www.w3.org/2000/svg" width="160" height="180" viewBox="0 0 160 180">
    <defs><linearGradient id="g" x1="0" x2="0" y1="0" y2="1"><stop offset="0" stop-color="#8ecae6"/><stop offset="1" stop-color="#4ea8de"/></linearGradient></defs>
    <rect width="160" height="180" fill="none"/>
    <ellipse cx="80" cy="164" rx="56" ry="12" fill="#000" opacity=".08"/>
    <rect x="14" y="90" width="132" height="90" rx="14" fill="url(#g)"/>
    <rect x="22" y="78" width="116" height="16" rx="8" fill="#c77dff"/><path d="M24 115 L80 74 L136 115 V124 H24 Z" fill="#c77dff"/><rect x="26" y="108" width="18" height="12" rx="4" fill="#ffecd1" opacity=".92"/><rect x="56" y="108" width="18" height="12" rx="4" fill="#ffecd1" opacity=".92"/><rect x="86" y="108" width="18" height="12" rx="4" fill="#ffecd1" opacity=".92"/><rect x="116" y="108" width="18" height="12" rx="4" fill="#ffecd1" opacity=".92"/><rect x="26" y="130" width="18" height="12" rx="4" fill="#ffecd1" opacity=".92"/><rect x="56" y="130" width="18" height="12" rx="4" fill="#ffecd1" opacity=".92"/><rect x="86" y="130" width="18" height="12" rx="4" fill="#ffecd1" opacity=".92"/><rect x="116" y="130" width="18" height="12" rx="4" fill="#ffecd1" opacity=".92"/><rect x="26" y="152" width="18" height="12" rx="4" fill="#ffecd1" opacity=".92"/><rect x="56" y="152" width="18" height="12" rx="4" fill="#ffecd1" opacity=".92"/><rect x="86" y="152" width="18" height="12" rx="4" fill="#ffecd1" opacity=".92"/><rect x="116" y="152" width="18" height="12" rx="4" fill="#ffecd1" opacity=".92"/><rect x="26" y="174" width="18" height="12" rx="4" fill="#ffecd1" opacity=".92"/><rect x="56" y="174" width="18" height="12" rx="4" fill="#ffecd1" opacity=".92"/><rect x="86" y="174" width="18" height="12" rx="4" fill="#ffecd1" opacity=".92"/><rect x="116" y="174" width="18" height="12" rx="4" fill="#ffecd1" opacity=".92"/><rect x="68" y="148" width="24" height="32" rx="8" fill="#c77dff" opacity=".82"/></svg>