<svg xmlns="http://www.w3.org/2000/svg" width="160" height="180" viewBox="0 0 160 180">
    <defs><linearGradient id="g" x1="0" x2="0" y1="0" y2="1"><stop offset="0" stop-color="#cbd5e1"/><stop offset="1" stop-color="#94a3b8"/></linearGradient></defs>
    <rect width="160" height="180" fill="none"/>
    <ellipse cx="80" cy="164" rx="56" ry="12" fill="#000" opacity=".08"/>
    <rect x="20" y="54" width="120" height="126" rx="14" fill="url(#g)"/>
    <rect x="28" y="42" width="104" height="16" rx="8" fill="#475569"/><rect x="35" y="72" width="20" height="12" rx="4" fill="#dff5ff" opacity=".92"/><rect x="70" y="72" width="20" height="12" rx="4" fill="#dff5ff" opacity=".92"/><rect x="105" y="72" width="20" height="12" rx="4" fill="#dff5ff" opacity=".92"/><rect x="35" y="94" width="20" height="12" rx="4" fill="#dff5ff" opacity=".92"/><rect x="70" y="94" width="20" height="12" rx="4" fill="#dff5ff" opacity=".92"/><rect x="105" y="94" width="20" height="12" rx="4" fill="#dff5ff" opacity=".92"/><rect x="35" y="116" width="20" height="12" rx="4" fill="#dff5ff" opacity=".92"/><rect x="70" y="116" width="20" height="12" rx="4" fill="#dff5ff" opacity=".92"/><rect x="105" y="116" width="20" height="12" rx="4" fill="#dff5ff" opacity=".92"/><rect x="35" y="138" width="20" height="12" rx="4" fill="#dff5ff" opacity=".92"/><rect x="70" y="138" width="20" height="12" rx="4" fill="#dff5ff" opacity=".92"/><rect x="105" y="138" width="20" height="12" rx="4" fill="#dff5ff" opacity=".92"/><rect x="35" y="160" width="20" height="12" rx="4" fill="#dff5ff" opacity=".92"/><rect x="70" y="160" width="20" height="12" rx="4" fill="#dff5ff" opacity=".92"/><rect x="105" y="160" width="20" height="12" rx="4" fill="#dff5ff" opacity=".92"/><rect x="68" y="148" width="24" height="32" rx="8" fill="#475569" opacity=".82"/></svg>