<svg xmlns="http://www.w3.org/2000/svg" width="160" height="180" viewBox="0 0 160 180">
    <defs><linearGradient id="g" x1="0" x2="0" y1="0" y2="1"><stop offset="0" stop-color="#a7f3d0"/><stop offset="1" stop-color="#34d399"/></linearGradient></defs>
    <rect width="160" height="180" fill="none"/>
    <ellipse cx="80" cy="164" rx="56" ry="12" fill="#000" opacity=".08"/>
    <rect x="14" y="72" width="132" height="108" rx="14" fill="url(#g)"/>
    <rect x="22" y="60" width="116" height="16" rx="8" fill="#2563eb"/><rect x="60" y="138" width="40" height="42" rx="8" fill="#2563eb" opacity=".9"/><rect x="26" y="90" width="18" height="12" rx="4" fill="#fff4bf" opacity=".92"/><rect x="56" y="90" width="18" height="12" rx="4" fill="#fff4bf" opacity=".92"/><rect x="86" y="90" width="18" height="12" rx="4" fill="#fff4bf" opacity=".92"/><rect x="116" y="90" width="18" height="12" rx="4" fill="#fff4bf" opacity=".92"/><rect x="26" y="112" width="18" height="12" rx="4" fill="#fff4bf" opacity=".92"/><rect x="56" y="112" width="18" height="12" rx="4" fill="#fff4bf" opacity=".92"/><rect x="86" y="112" width="18" height="12" rx="4" fill="#fff4bf" opacity=".92"/><rect x="116" y="112" width="18" height="12" rx="4" fill="#fff4bf" opacity=".92"/><rect x="26" y="134" width="18" height="12" rx="4" fill="#fff4bf" opacity=".92"/><rect x="56" y="134" width="18" height="12" rx="4" fill="#fff4bf" opacity=".92"/><rect x="86" y="134" width="18" height="12" rx="4" fill="#fff4bf" opacity=".92"/><rect x="116" y="134" width="18" height="12" rx="4" fill="#fff4bf" opacity=".92"/><rect x="26" y="156" width="18" height="12" rx="4" fill="#fff4bf" opacity=".92"/><rect x="56" y="156" width="18" height="12" rx="4" fill="#fff4bf" opacity=".92"/><rect x="86" y="156" width="18" height="12" rx="4" fill="#fff4bf" opacity=".92"/><rect x="116" y="156" width="18" height="12" rx="4" fill="#fff4bf" opacity=".92"/><rect x="68" y="148" width="24" height="32" rx="8" fill="#2563eb" opacity=".82"/></svg>