<svg xmlns="http://www.w3.org/2000/svg" width="160" height="180" viewBox="0 0 160 180">
    <defs><linearGradient id="g" x1="0" x2="0" y1="0" y2="1"><stop offset="0" stop-color="#bfdbfe"/><stop offset="1" stop-color="#60a5fa"/></linearGradient></defs>
    <rect width="160" height="180" fill="none"/>
    <ellipse cx="80" cy="164" rx="56" ry="12" fill="#000" opacity=".08"/>
    <rect x="20" y="44" width="120" height="136" rx="14" fill="url(#g)"/>
    <rect x="28" y="32" width="104" height="16" rx="8" fill="#1d4ed8"/><rect x="35" y="62" width="20" height="12" rx="4" fill="#fff4bf" opacity=".92"/><rect x="70" y="62" width="20" height="12" rx="4" fill="#fff4bf" opacity=".92"/><rect x="105" y="62" width="20" height="12" rx="4" fill="#fff4bf" opacity=".92"/><rect x="35" y="84" width="20" height="12" rx="4" fill="#fff4bf" opacity=".92"/><rect x="70" y="84" width="20" height="12" rx="4" fill="#fff4bf" opacity=".92"/><rect x="105" y="84" width="20" height="12" rx="4" fill="#fff4bf" opacity=".92"/><rect x="35" y="106" width="20" height="12" rx="4" fill="#fff4bf" opacity=".92"/><rect x="70" y="106" width="20" height="12" rx="4" fill="#fff4bf" opacity=".92"/><rect x="105" y="106" width="20" height="12" rx="4" fill="#fff4bf" opacity=".92"/><rect x="35" y="128" width="20" height="12" rx="4" fill="#fff4bf" opacity=".92"/><rect x="70" y="128" width="20" height="12" rx="4" fill="#fff4bf" opacity=".92"/><rect x="105" y="128" width="20" height="12" rx="4" fill="#fff4bf" opacity=".92"/><rect x="35" y="150" width="20" height="12" rx="4" fill="#fff4bf" opacity=".92"/><rect x="70" y="150" width="20" height="12" rx="4" fill="#fff4bf" opacity=".92"/><rect x="105" y="150" width="20" height="12" rx="4" fill="#fff4bf" opacity=".92"/><rect x="35" y="172" width="20" height="12" rx="4" fill="#fff4bf" opacity=".92"/><rect x="70" y="172" width="20" height="12" rx="4" fill="#fff4bf" opacity=".92"/><rect x="105" y="172" width="20" height="12" rx="4" fill="#fff4bf" opacity=".92"/><rect x="68" y="148" width="24" height="32" rx="8" fill="#1d4ed8" opacity=".82"/></svg>